<svg width="78" height="78" viewBox="0 0 78 78" fill="none" xmlns="http://www.w3.org/2000/svg">
<path d="M47.4558 41.8339H42.4835C38.4049 41.8339 35.0825 38.5344 35.0825 34.4328V29.4606C35.0825 28.5211 34.3263 27.7421 33.3639 27.7421H26.1003C20.8073 27.7421 16.5225 31.1791 16.5225 37.3199V52.5346C16.5225 58.6754 20.8073 62.1124 26.1003 62.1124H39.5964C44.8895 62.1124 49.1743 58.6754 49.1743 52.5346V43.5524C49.1743 42.5901 48.3953 41.8339 47.4558 41.8339Z" fill="#E76F51"/>
<path d="M52.7718 16.286H48.2578H45.7602H39.2757C34.0972 16.286 29.904 19.5856 29.7207 25.4744C29.8582 25.4744 29.9728 25.4514 30.1102 25.4514H36.5948H39.0924H43.6063C48.8994 25.4514 53.1842 28.8885 53.1842 35.0293V39.5433V45.7529V50.2668C53.1842 50.4043 53.1613 50.5189 53.1613 50.6335C58.271 50.4731 62.3496 47.0819 62.3496 41.1014V36.5874V30.3779V25.8639C62.3496 19.723 58.0648 16.286 52.7718 16.286Z" fill="#E76F51"/>
<path d="M39.3906 28.0861C38.6802 27.3758 37.4658 27.857 37.4658 28.8422V34.8456C37.4658 37.3661 39.5968 39.4283 42.2089 39.4283C43.8358 39.4512 46.1042 39.4512 48.0519 39.4512C49.0372 39.4512 49.5413 38.3055 48.8539 37.6181C46.3563 35.1206 41.9111 30.6524 39.3906 28.0861Z" fill="#E76F51"/>
</svg>
