<svg width="1728" height="108" viewBox="0 0 1728 108" fill="none" xmlns="http://www.w3.org/2000/svg">
<path d="M-355 0.302856C-355 0.302856 -199.275 105.293 -62.3968 107.658H-53.1071C81.7307 105.277 100.65 35.2158 235.5 33.5C369.223 31.7985 395.039 105.419 522.319 107.658H534.344C668.196 105.37 680.13 34.6607 814 33.5C948.805 32.3313 976.445 107.081 1109.61 107.658H1112.72C1247.58 107.078 1332.42 7.24036 1489.5 33.5C1589.28 50.1805 1728 107.658 1728 107.658H1112.72C1111.68 107.663 1110.64 107.663 1109.61 107.658H534.344C530.236 107.728 526.229 107.727 522.319 107.658H-53.1071C-56.1926 107.713 -59.2899 107.712 -62.3968 107.658H-355V0.302856Z" fill="#14252D"/>
</svg>
