<svg width="145" height="31" viewBox="0 0 145 31" fill="none" xmlns="http://www.w3.org/2000/svg">
<path d="M135.569 29.2965C135.521 29.4048 135.53 29.5304 135.595 29.6301C135.659 29.7298 135.77 29.79 135.889 29.79H137.349C137.486 29.79 137.611 29.7092 137.668 29.5837L144.188 15.1037C144.237 14.9954 144.227 14.8697 144.163 14.77C144.098 14.6702 143.987 14.61 143.869 14.61H142.429C142.291 14.61 142.166 14.6904 142.11 14.8157L138.817 22.0929L135.69 14.8217C135.635 14.6932 135.508 14.61 135.369 14.61H133.849C133.73 14.61 133.62 14.6699 133.555 14.7692C133.491 14.8685 133.481 14.9938 133.529 15.102L137.509 24.062C137.565 24.1882 137.69 24.2696 137.828 24.27L135.569 29.2965Z" fill="white" stroke="white" stroke-width="0.7" stroke-linejoin="round"/>
<path d="M127.439 25.04C127.439 25.2333 127.595 25.39 127.789 25.39H129.189C129.382 25.39 129.539 25.2333 129.539 25.04V16.51H131.809C132.002 16.51 132.159 16.3533 132.159 16.16V14.96C132.159 14.7667 132.002 14.61 131.809 14.61H129.539V13.28C129.539 12.7793 129.641 12.5255 129.752 12.4111C129.883 12.2915 130.151 12.19 130.649 12.19H131.549C131.742 12.19 131.899 12.0333 131.899 11.84V10.64C131.899 10.4467 131.742 10.29 131.549 10.29H130.409C129.787 10.29 129.245 10.3884 128.796 10.6048C128.34 10.8249 127.992 11.1662 127.758 11.6192L127.758 11.6191L127.755 11.6234C127.537 12.061 127.439 12.5996 127.439 13.22V14.61H126.229C126.035 14.61 125.879 14.7667 125.879 14.96V16.16C125.879 16.3533 126.035 16.51 126.229 16.51H127.439V25.04Z" fill="white" stroke="white" stroke-width="0.7" stroke-linejoin="round"/>
<path d="M121.409 25.04C121.409 25.2333 121.566 25.39 121.759 25.39H123.139C123.333 25.39 123.489 25.2333 123.489 25.04V14.96C123.489 14.7667 123.333 14.61 123.139 14.61H121.759C121.566 14.61 121.409 14.7667 121.409 14.96V25.04ZM121.492 12.5475L121.492 12.5476L121.501 12.5559C121.767 12.8046 122.093 12.93 122.459 12.93C122.826 12.93 123.15 12.8041 123.407 12.5475C123.675 12.2792 123.809 11.9423 123.809 11.56C123.809 11.1719 123.679 10.8301 123.394 10.5798C123.128 10.334 122.804 10.21 122.439 10.21C122.073 10.21 121.747 10.3353 121.481 10.5838C121.209 10.8367 121.089 11.1776 121.089 11.56C121.089 11.9423 121.224 12.2792 121.492 12.5475Z" fill="white" stroke="white" stroke-width="0.7" stroke-linejoin="round"/>
<path d="M115.1 25.099L115.1 25.0991L115.108 25.1028C115.575 25.2983 116.116 25.39 116.724 25.39H118.224C118.417 25.39 118.574 25.2333 118.574 25.04V23.84C118.574 23.6467 118.417 23.49 118.224 23.49H117.184C116.524 23.49 116.162 23.3763 115.994 23.2366C115.846 23.0996 115.714 22.7801 115.714 22.14V16.51H118.384C118.577 16.51 118.734 16.3533 118.734 16.16V14.98C118.734 14.7867 118.577 14.63 118.384 14.63H115.714V12.62C115.714 12.4267 115.557 12.27 115.364 12.27H114.164C113.982 12.27 113.83 12.4091 113.815 12.5902L113.642 14.61H112.204C112.01 14.61 111.854 14.7667 111.854 14.96V16.16C111.854 16.3533 112.01 16.51 112.204 16.51H113.614V22.14C113.614 22.9012 113.723 23.5421 113.971 24.0365L113.97 24.0366L113.977 24.0483C114.238 24.5254 114.614 24.8798 115.1 25.099Z" fill="white" stroke="white" stroke-width="0.7" stroke-linejoin="round"/>
<path d="M103.927 25.1998L103.93 25.2009C104.595 25.4901 105.35 25.63 106.189 25.63C106.988 25.63 107.699 25.4969 108.313 25.2189L108.314 25.2189L108.32 25.216C108.931 24.9249 109.416 24.5181 109.762 23.9922C110.11 23.4628 110.273 22.8599 110.259 22.1961C110.259 21.4276 110.074 20.782 109.654 20.3111C109.277 19.8603 108.784 19.5349 108.187 19.3305C107.634 19.1235 107.03 18.9592 106.376 18.8364C105.861 18.7332 105.431 18.6127 105.084 18.477C104.758 18.331 104.534 18.1716 104.393 18.0095C104.264 17.8624 104.199 17.6918 104.199 17.48C104.199 17.1135 104.329 16.8528 104.583 16.6574L104.583 16.6574L104.584 16.6562C104.86 16.4417 105.286 16.31 105.909 16.31C106.536 16.31 106.99 16.4571 107.311 16.7133C107.631 16.9697 107.816 17.3137 107.861 17.774C107.878 17.9532 108.029 18.09 108.209 18.09H109.609C109.709 18.09 109.803 18.0477 109.87 17.9738C109.936 17.8998 109.968 17.8012 109.957 17.7024C109.843 16.6424 109.428 15.8011 108.685 15.2247C107.957 14.6459 107.036 14.37 105.949 14.37C105.19 14.37 104.511 14.5034 103.922 14.7823C103.337 15.0462 102.871 15.4263 102.538 15.9258L102.538 15.9258L102.537 15.9279C102.215 16.4185 102.059 16.9871 102.059 17.62C102.059 18.1107 102.164 18.5579 102.384 18.951L102.384 18.951L102.387 18.9563C102.601 19.3241 102.892 19.6295 103.255 19.8712L103.255 19.8712L103.261 19.8748C103.622 20.1058 104.023 20.2914 104.462 20.4331C104.89 20.5713 105.338 20.6815 105.805 20.7641C106.342 20.869 106.795 20.9793 107.165 21.0942C107.502 21.1986 107.728 21.3517 107.875 21.5368C107.879 21.5422 107.883 21.5474 107.888 21.5525C108.026 21.708 108.119 21.9538 108.119 22.34C108.119 22.5927 108.052 22.8197 107.916 23.0292L107.916 23.0292L107.913 23.0331C107.796 23.2185 107.607 23.3851 107.321 23.5231C107.062 23.6409 106.704 23.71 106.229 23.71C105.724 23.71 105.305 23.624 104.961 23.4648C104.608 23.2873 104.335 23.0626 104.132 22.7937C103.935 22.5145 103.802 22.2072 103.732 21.8691C103.698 21.7065 103.555 21.59 103.389 21.59H101.949C101.849 21.59 101.754 21.6326 101.688 21.7071C101.622 21.7816 101.59 21.8809 101.602 21.9801C101.687 22.7247 101.926 23.3823 102.324 23.9427L102.324 23.9428L102.33 23.9512C102.741 24.4946 103.276 24.9106 103.927 25.1998Z" fill="white" stroke="white" stroke-width="0.7" stroke-linejoin="round"/>
<path d="M91.4524 24.9401L91.4523 24.9402L91.4588 24.9439C92.262 25.4029 93.1559 25.63 94.1324 25.63C95.146 25.63 96.0549 25.4042 96.8485 24.9425L96.8501 24.9415C97.6531 24.4683 98.2837 23.808 98.7396 22.9678C99.2118 22.1089 99.4424 21.1228 99.4424 20.02C99.4424 18.8812 99.2201 17.8812 98.7601 17.0331C98.305 16.194 97.6814 15.5393 96.8905 15.0786C96.0968 14.6029 95.1871 14.37 94.1724 14.37C93.1948 14.37 92.3001 14.6043 91.4968 15.0772C90.6931 15.5369 90.0561 16.1905 89.587 17.0291L89.5869 17.0291L89.5848 17.0331C89.1248 17.8812 88.9024 18.8812 88.9024 20.02C88.9024 21.1214 89.1258 22.1063 89.5836 22.9647L89.5836 22.9647L89.5848 22.9668C90.0398 23.8059 90.6628 24.4664 91.4524 24.9401ZM95.698 23.3166L95.698 23.3165L95.6946 23.3185C95.2306 23.5922 94.7191 23.73 94.1524 23.73C93.6012 23.73 93.0885 23.5931 92.6086 23.3175C92.1519 23.0478 91.7752 22.6459 91.482 22.0967C91.1951 21.546 91.0424 20.8521 91.0424 20C91.0424 19.1325 91.1957 18.4488 91.4791 17.9287C91.7851 17.3784 92.1753 16.9746 92.6469 16.7034C93.1286 16.4264 93.6353 16.29 94.1724 16.29C94.7391 16.29 95.2506 16.4278 95.7146 16.7014L95.7146 16.7016L95.7238 16.7066C96.1908 16.9635 96.5717 17.3573 96.8636 17.9047C97.1491 18.4399 97.3024 19.1324 97.3024 20C97.3024 20.8509 97.1437 21.5432 96.8449 22.0928L96.8449 22.0928L96.8436 22.0953C96.5511 22.6436 96.1685 23.046 95.698 23.3166Z" fill="white" stroke="white" stroke-width="0.7" stroke-linejoin="round"/>
<path d="M83.9664 25.04C83.9664 25.2333 84.1231 25.39 84.3164 25.39H85.7164C85.9097 25.39 86.0664 25.2333 86.0664 25.04V11.04C86.0664 10.8467 85.9097 10.69 85.7164 10.69H84.3164C84.1231 10.69 83.9664 10.8467 83.9664 11.04V16.99H77.0864V11.04C77.0864 10.8467 76.9297 10.69 76.7364 10.69H75.3364C75.1431 10.69 74.9864 10.8467 74.9864 11.04V25.04C74.9864 25.2333 75.1431 25.39 75.3364 25.39H76.7364C76.9297 25.39 77.0864 25.2333 77.0864 25.04V18.85H83.9664V25.04Z" fill="white" stroke="white" stroke-width="0.7" stroke-linejoin="round"/>
<path d="M64.6599 24.9171L64.6624 24.9186C65.4431 25.3957 66.3343 25.63 67.3249 25.63C68.1384 25.63 68.8695 25.4897 69.5098 25.1986C70.1439 24.9104 70.6695 24.5034 71.0794 23.9772C71.4936 23.4625 71.7945 22.8891 71.9806 22.2591C72.0119 22.1533 71.9914 22.0389 71.9253 21.9505C71.8592 21.862 71.7553 21.81 71.6449 21.81H70.2649C70.1168 21.81 69.9848 21.9032 69.9352 22.0427C69.7451 22.5774 69.4355 22.9894 69.0064 23.2917C68.5853 23.5753 68.0329 23.73 67.3249 23.73C66.8148 23.73 66.3197 23.6003 65.8353 23.3342C65.3818 23.078 65.0065 22.6842 64.7138 22.1353C64.5011 21.7365 64.3618 21.2506 64.3045 20.67H71.8849C72.0686 20.67 72.221 20.5281 72.2341 20.3449C72.2478 20.153 72.2549 19.9842 72.2549 19.84V19.8391V19.8383V19.8374V19.8365V19.8357V19.8348V19.834V19.8331V19.8322V19.8314V19.8305V19.8297V19.8288V19.828V19.8271V19.8262V19.8254V19.8245V19.8237V19.8228V19.822V19.8211V19.8202V19.8194V19.8185V19.8177V19.8168V19.816V19.8151V19.8143V19.8134V19.8125V19.8117V19.8108V19.81V19.8091V19.8083V19.8074V19.8066V19.8057V19.8049V19.804V19.8032V19.8023V19.8015V19.8006V19.7997V19.7989V19.798V19.7972V19.7963V19.7955V19.7946V19.7938V19.7929V19.7921V19.7912V19.7904V19.7895V19.7887V19.7878V19.787V19.7861V19.7853V19.7844V19.7836V19.7827V19.7819V19.781V19.7802V19.7793V19.7785V19.7776V19.7768V19.7759V19.7751V19.7743V19.7734V19.7726V19.7717V19.7709V19.77V19.7692V19.7683V19.7675V19.7666V19.7658V19.7649V19.7641V19.7632V19.7624V19.7616V19.7607V19.7599V19.759V19.7582V19.7573V19.7565V19.7556V19.7548V19.754V19.7531V19.7523V19.7514V19.7506V19.7497V19.7489V19.748V19.7472V19.7464V19.7455V19.7447V19.7438V19.743V19.7422V19.7413V19.7405V19.7396V19.7388V19.7379V19.7371V19.7363V19.7354V19.7346V19.7337V19.7329V19.7321V19.7312V19.7304V19.7295V19.7287V19.7279V19.727V19.7262V19.7253V19.7245V19.7237V19.7228V19.722V19.7212V19.7203V19.7195V19.7186V19.7178V19.717V19.7161V19.7153V19.7145V19.7136V19.7128V19.7119V19.7111V19.7103V19.7094V19.7086V19.7078V19.7069V19.7061V19.7053V19.7044V19.7036V19.7028V19.7019V19.7011V19.7003V19.6994V19.6986V19.6977V19.6969V19.6961V19.6952V19.6944V19.6936V19.6927V19.6919V19.6911V19.6903V19.6894V19.6886V19.6878V19.6869V19.6861V19.6853V19.6844V19.6836V19.6828V19.6819V19.6811V19.6803V19.6794V19.6786V19.6778V19.677V19.6761V19.6753V19.6745V19.6736V19.6728V19.672V19.6711V19.6703V19.6695V19.6687V19.6678V19.667V19.6662V19.6653V19.6645V19.6637V19.6629V19.662V19.6612V19.6604V19.6596V19.6587V19.6579V19.6571V19.6563V19.6554V19.6546V19.6538V19.6529V19.6521V19.6513V19.6505V19.6496V19.6488V19.648V19.6472V19.6464V19.6455V19.6447V19.6439V19.6431V19.6422V19.6414V19.6406V19.6398V19.6389V19.6381V19.6373V19.6365V19.6356V19.6348V19.634V19.6332V19.6324V19.6315V19.6307V19.6299V19.6291V19.6283V19.6274V19.6266V19.6258V19.625V19.6242V19.6233V19.6225V19.6217V19.6209V19.6201V19.6192V19.6184V19.6176V19.6168V19.616V19.6151V19.6143V19.6135V19.6127V19.6119V19.611V19.6102V19.6094V19.6086V19.6078V19.607V19.6061V19.6053V19.6045V19.6037V19.6029V19.6021V19.6012V19.6004V19.5996V19.5988V19.598V19.5972V19.5964V19.5955V19.5947V19.5939V19.5931V19.5923V19.5915V19.5907V19.5898V19.589V19.5882V19.5874V19.5866V19.5858V19.585V19.5841V19.5833V19.5825V19.5817V19.5809V19.5801V19.5793V19.5785V19.5776V19.5768V19.576V19.5752V19.5744V19.5736V19.5728V19.572V19.5712V19.5704V19.5695V19.5687V19.5679V19.5671V19.5663V19.5655V19.5647V19.5639V19.5631V19.5623V19.5615V19.5606V19.5598V19.559V19.5582V19.5574V19.5566V19.5558V19.555V19.5542V19.5534V19.5526V19.5518V19.551V19.5501V19.5493V19.5485V19.5477V19.5469V19.5461V19.5453V19.5445V19.5437V19.5429V19.5421V19.5413V19.5405V19.5397V19.5389V19.5381V19.5373V19.5365V19.5357V19.5349V19.5341V19.5332V19.5324V19.5316V19.5308V19.53V19.5292V19.5284V19.5276V19.5268V19.526V19.5252V19.5244V19.5236V19.5228V19.522V19.5212V19.5204V19.5196V19.5188V19.518V19.5172V19.5164V19.5156V19.5148V19.514V19.5132V19.5124V19.5116V19.5108V19.51V19.5092V19.5084V19.5076V19.5068V19.506V19.5052V19.5044V19.5036V19.5028V19.502V19.5012V19.5005V19.4997V19.4989V19.4981V19.4973V19.4965V19.4957V19.4949V19.4941V19.4933V19.4925V19.4917V19.4909V19.4901V19.4893V19.4885V19.4877V19.4869V19.4861V19.4853V19.4845V19.4838V19.483V19.4822V19.4814V19.4806V19.4798V19.479V19.4782V19.4774V19.4766V19.4758V19.475V19.4742V19.4734V19.4727V19.4719V19.4711V19.4703V19.4695V19.4687V19.4679V19.4671V19.4663V19.4655V19.4647V19.464V19.4632V19.4624V19.4616V19.4608V19.46V19.4592V19.4584V19.4576V19.4569V19.4561V19.4553V19.4545V19.4537V19.4529V19.4521V19.4513V19.4506V19.4498V19.449V19.4482V19.4474V19.4466V19.4458V19.445V19.4443V19.4435V19.4427V19.4419V19.4411V19.4403V19.4395V19.4388V19.438V19.4372V19.4364V19.4356V19.4348V19.4341V19.4333V19.4325V19.4317V19.4309V19.4301V19.4294V19.4286V19.4278V19.427V19.4262V19.4254V19.4247V19.4239V19.4231V19.4223V19.4215V19.4208V19.42C72.2549 18.529 72.0637 17.7016 71.678 16.9434C71.3028 16.1797 70.7466 15.5598 70.0164 15.087C69.2814 14.6023 68.3911 14.37 67.3649 14.37C66.3622 14.37 65.4589 14.6036 64.6657 15.0794C63.8858 15.5417 63.2812 16.1991 62.853 17.0413C62.4233 17.8864 62.2149 18.8695 62.2149 19.98C62.2149 21.0906 62.4233 22.0794 62.8519 22.9365L62.8518 22.9365L62.8551 22.9428C63.2954 23.7806 63.8969 24.442 64.6599 24.9171ZM70.1718 18.79H64.3264C64.3902 18.3685 64.5123 18.0134 64.6858 17.7189C64.9756 17.2362 65.3432 16.8838 65.788 16.6497L65.788 16.6497L65.7909 16.6481C66.259 16.396 66.7619 16.27 67.3049 16.27C68.1479 16.27 68.8189 16.5238 69.3461 17.0158L69.3461 17.0159L69.3489 17.0184C69.8076 17.4372 70.0899 18.0169 70.1718 18.79Z" fill="white" stroke="white" stroke-width="0.7" stroke-linejoin="round"/>
<path d="M46.5427 25.1335C46.5847 25.285 46.7227 25.39 46.88 25.39H48.42C48.5746 25.39 48.7109 25.2886 48.7553 25.1405L51.9972 14.3281L55.1843 25.139C55.2282 25.2878 55.3648 25.39 55.52 25.39H57.1C57.2568 25.39 57.3944 25.2857 57.4369 25.1348L61.3769 11.1348C61.4066 11.0293 61.3852 10.916 61.319 10.8287C61.2528 10.7413 61.1496 10.69 61.04 10.69H59.54C59.3808 10.69 59.2417 10.7974 59.2014 10.9513L56.3069 22.008L53.1768 10.9447C53.1341 10.794 52.9966 10.69 52.84 10.69H51.28C51.1244 10.69 50.9875 10.7927 50.944 10.942L47.7189 22.0046L44.8387 10.9517C44.7985 10.7976 44.6593 10.69 44.5 10.69H43C42.8907 10.69 42.7876 10.7411 42.7214 10.8281C42.6552 10.9151 42.6335 11.0281 42.6627 11.1335L46.5427 25.1335Z" fill="white" stroke="white" stroke-width="0.7" stroke-linejoin="round"/>
<path d="M3 10.6549L10.5829 27.4997" stroke="white" stroke-width="4.34656" stroke-linecap="round"/>
<path d="M18.1914 2.64862L13.432 5.26926" stroke="white" stroke-width="4.34656" stroke-linecap="round"/>
<path d="M18.3682 2.56L23.0363 5.33991" stroke="white" stroke-width="4.34656" stroke-linecap="round"/>
<path d="M18.1777 10.6016L10.5948 27.4464" stroke="white" stroke-width="4.34656" stroke-linecap="round"/>
<path d="M31 10.6013L23.4171 27.4461" stroke="white" stroke-width="4.34656" stroke-linecap="round"/>
<path d="M19.8311 19.6204L23.3995 27.5474" stroke="white" stroke-width="4.34656" stroke-linecap="round"/>
</svg>
